<svg width="40" height="40" viewBox="0 0 40 40" fill="none" xmlns="http://www.w3.org/2000/svg">
<rect width="40" height="40" rx="20" fill="white"/>
<path d="M19.9996 12.3794C15.7971 12.3794 12.3782 15.7983 12.3782 20.0005C12.3782 24.2031 15.7971 27.622 19.9996 27.622C24.2019 27.622 27.6208 24.2031 27.6208 20.0005C27.6208 15.7983 24.2019 12.3794 19.9996 12.3794ZM24.5245 18.5653L19.0646 24.0252C18.8354 24.2544 18.5348 24.3691 18.2345 24.3691C17.9342 24.3691 17.6339 24.2547 17.4047 24.0252L15.3182 21.9387C14.8599 21.4807 14.8599 20.7375 15.3182 20.2792C15.7763 19.8208 16.5194 19.8208 16.9778 20.2792L18.2345 21.5359L22.8649 16.9058C23.323 16.4474 24.0661 16.4474 24.5245 16.9058C24.9828 17.3638 24.9828 18.1069 24.5245 18.5653Z" fill="#2246DC"/>
<path d="M36.9912 10.853L36.9899 10.8219C36.9726 10.4377 36.961 10.0312 36.9539 9.57891C36.9213 7.37341 35.1681 5.54907 32.9622 5.42578C28.3633 5.16913 24.8055 3.6695 21.7657 0.706556L21.7397 0.681837C20.7482 -0.227279 19.2526 -0.227279 18.2607 0.681837L18.2348 0.706556C15.195 3.6695 11.6372 5.16913 7.03824 5.42609C4.83274 5.54907 3.07921 7.37341 3.04656 9.57921C3.03984 10.0284 3.02794 10.4349 3.01054 10.8219L3.00871 10.8942C2.9193 15.5838 2.80821 21.4203 4.76072 26.7178C5.83433 29.631 7.4603 32.1634 9.59317 34.245C12.0224 36.6156 15.2041 38.4976 19.0499 39.8385C19.1751 39.8822 19.3051 39.9176 19.4375 39.9441C19.6243 39.9814 19.8123 40 20.0002 40C20.1882 40 20.3765 39.9814 20.563 39.9441C20.6954 39.9176 20.8264 39.8819 20.9521 39.8379C24.7933 38.4945 27.9717 36.6116 30.3988 34.2413C32.5307 32.1591 34.1567 29.6262 35.2312 26.7123C37.1911 21.3989 37.0803 15.5515 36.9912 10.853ZM19.9996 29.9692C14.5028 29.9692 10.0311 25.4974 10.0311 20.0006C10.0311 14.5038 14.5028 10.0321 19.9996 10.0321C25.4961 10.0321 29.9682 14.5038 29.9682 20.0006C29.9682 25.4974 25.4961 29.9692 19.9996 29.9692Z" fill="#2246DC"/>
</svg>
