<svg width="24" height="24" viewBox="0 0 24 24" fill="none" xmlns="http://www.w3.org/2000/svg">
<path d="M13.12 14.08C12.7912 14.3052 12.3982 14.4175 12 14.4C11.6019 14.4175 11.2089 14.3052 10.88 14.08L2.40002 9.52002V17.6C2.40002 18.2365 2.65288 18.847 3.10297 19.2971C3.55306 19.7472 4.1635 20 4.80002 20H19.2C19.8365 20 20.447 19.7472 20.8971 19.2971C21.3472 18.847 21.6 18.2365 21.6 17.6V9.52002L13.12 14.08Z" fill="white" fill-opacity="0.5"/>
<path d="M19.2 4H4.80004C4.16352 4 3.55307 4.25286 3.10298 4.70294C2.65289 5.15303 2.40004 5.76348 2.40004 6.4V7.2C2.39927 7.34426 2.43567 7.48628 2.50573 7.61239C2.57579 7.7385 2.67715 7.84444 2.80004 7.92L11.6 12.72C11.7229 12.7847 11.8618 12.8125 12 12.8C12.1383 12.8125 12.2772 12.7847 12.4 12.72L21.2 7.92C21.3229 7.84444 21.4243 7.7385 21.4943 7.61239C21.5644 7.48628 21.6008 7.34426 21.6 7.2V6.4C21.6 5.76348 21.3472 5.15303 20.8971 4.70294C20.447 4.25286 19.8366 4 19.2 4Z" fill="white" fill-opacity="0.5"/>
</svg>
