<svg width="124" height="124" viewBox="0 0 124 124" fill="none" xmlns="http://www.w3.org/2000/svg">
<g opacity="0.3">
<path d="M113.178 78.1882C106.2 78.6183 97.0235 85.5903 88.172 89.599C77.324 94.5114 60.4363 90.562 60.4347 90.562C63.0397 89.3392 73.6269 86.8178 75.7573 85.8825C87.0901 80.8944 86.1298 70.5061 80.7323 70.5941C73.6015 70.708 69.4157 72.4578 55.1871 74.3982C44.4027 75.8641 31.6475 75.3283 25.5298 77.6639C16.8933 80.9629 2.98413 103.158 2.98413 103.158L24.4897 124C24.4897 124 37.8048 110.887 44.2824 110.887C59.0442 110.887 59.6403 110.689 73.3479 109.943C79.1768 109.632 80.3934 109.392 83.7289 108.268C101.497 102.261 120.575 86.2625 120.926 84.3428C121.738 79.8803 116.863 77.9656 113.178 78.1882Z" fill="white"/>
<path d="M40.5762 33.0814L44.0118 33.6887C44.0437 33.6936 44.0744 33.693 44.106 33.6963C44.2466 35.775 44.6194 37.7942 45.2089 39.7162C45.1664 39.7346 45.1256 39.7481 45.0861 39.7755L42.0634 41.5173C41.5461 41.8183 41.1686 42.3097 41.0135 42.8844C40.8597 43.465 40.9407 44.0805 41.2401 44.5936L45.2777 51.5904C45.6953 52.3126 46.4535 52.721 47.2314 52.721C47.6124 52.721 48.0004 52.6238 48.3557 52.414L51.3777 50.6719C51.4478 50.6333 51.5111 50.5819 51.572 50.5319C52.972 51.9935 54.5294 53.2901 56.2222 54.4085C56.1834 54.4806 56.1419 54.558 56.1109 54.642L54.9181 57.9245C54.7122 58.4847 54.7405 59.1051 54.9918 59.6462C55.2454 60.1877 55.7019 60.6023 56.264 60.8118L63.8546 63.5755C64.1105 63.6664 64.369 63.7089 64.6262 63.7089C65.5467 63.7089 66.4099 63.1425 66.7415 62.2256L67.9347 58.9467C67.969 58.8555 67.989 58.763 68.0101 58.6711C69.0001 58.7798 70.0062 58.844 71.0242 58.844C72.0451 58.844 73.0496 58.7798 74.0393 58.6708C74.0607 58.7626 74.0808 58.8548 74.1137 58.9461L75.3069 62.2256C75.5124 62.7891 75.931 63.2459 76.4724 63.4995C76.7741 63.6361 77.0975 63.7083 77.4258 63.7083C77.685 63.7083 77.9475 63.6612 78.1951 63.5759L85.7867 60.8118C86.9568 60.3839 87.5588 59.0939 87.1343 57.9245L85.9404 54.642C85.9082 54.558 85.8696 54.4806 85.8291 54.4082C87.5203 53.2897 89.0793 51.9925 90.4777 50.5312C90.5426 50.5813 90.6012 50.633 90.6727 50.6715L93.6953 52.414C94.0408 52.6189 94.4294 52.7206 94.8223 52.7206C95.0173 52.7206 95.2145 52.691 95.4052 52.6429C95.9802 52.4858 96.4749 52.1097 96.772 51.5904L100.812 44.5936C101.433 43.5157 101.065 42.1404 99.9869 41.5177L96.9649 39.7755C96.9244 39.7481 96.8819 39.7343 96.8441 39.7159C97.4293 37.7942 97.8031 35.7747 97.9434 33.6963C97.9744 33.6923 98.0056 33.6933 98.0386 33.6884L101.475 33.0814C102.064 32.9783 102.588 32.6447 102.931 32.157C103.272 31.6699 103.406 31.0636 103.304 30.4721L101.899 22.5196C101.796 21.9278 101.463 21.4038 100.974 21.0663C100.483 20.7228 99.8789 20.5854 99.2897 20.6882L95.86 21.2942C95.0433 19.3797 94.0049 17.5786 92.7867 15.9151L95.007 13.2732C95.3924 12.8161 95.5781 12.2223 95.5254 11.6305C95.4727 11.0331 95.1879 10.4841 94.7278 10.101L88.5412 4.90677C88.0824 4.52441 87.4919 4.33636 86.8958 4.38675C86.3007 4.44174 85.7501 4.72695 85.3661 5.18407L83.1918 7.77791C81.3459 6.837 79.3788 6.10719 77.3178 5.61648V2.25232C77.3178 1.01205 76.3097 0 75.0665 0H66.9882C65.743 0 64.7336 1.01238 64.7336 2.25232V5.61681C62.6752 6.10719 60.7074 6.83733 58.8609 7.77824L56.6846 5.18473C56.3009 4.72761 55.7509 4.4424 55.1555 4.3874C54.5614 4.33702 53.9689 4.52507 53.5124 4.90742L47.3226 10.1017C46.3698 10.9013 46.245 12.3181 47.0453 13.2735L49.2644 15.9151C48.0452 17.5786 47.0104 19.3801 46.191 21.2942L42.762 20.6885C42.1757 20.5858 41.5684 20.7228 41.0804 21.0663C40.5903 21.4038 40.257 21.9278 40.1533 22.5196L38.752 30.4721C38.5326 31.6995 39.3514 32.8683 40.5762 33.0814ZM53.3287 32.0641C53.3287 22.3029 61.267 14.3663 71.0242 14.3663C80.7827 14.3663 88.722 22.3032 88.722 32.0641C88.722 41.8246 80.7827 49.7612 71.0242 49.7612C61.2666 49.7609 53.3287 41.8243 53.3287 32.0641Z" fill="white"/>
</g>
</svg>
