<svg width="24" height="24" viewBox="0 0 24 24" fill="none" xmlns="http://www.w3.org/2000/svg">
<path d="M14.9112 13.9256L13.0272 15.7824C12.045 15.1899 11.1326 14.4887 10.3072 13.692C9.51211 12.8655 8.81128 11.9533 8.21763 10.972L10.0728 9.08802C10.1843 8.9741 10.2595 8.82977 10.2891 8.67319C10.3187 8.51661 10.3014 8.35477 10.2392 8.20803L8.30563 3.69123C8.2294 3.51377 8.09207 3.36954 7.91857 3.28469C7.74507 3.19985 7.5469 3.18003 7.36003 3.22883L3.80483 4.16723C3.6272 4.21284 3.47044 4.31769 3.36048 4.46446C3.25051 4.61123 3.19391 4.79113 3.20003 4.97443C3.42594 9.10287 5.14264 13.009 8.03123 15.9672C10.9901 18.857 14.8975 20.5743 19.0272 20.8C19.2105 20.8057 19.3903 20.749 19.5371 20.6391C19.684 20.5292 19.7891 20.3727 19.8352 20.1952L20.7728 16.6432C20.8225 16.456 20.8033 16.2572 20.7185 16.083C20.6338 15.9088 20.4892 15.7709 20.3112 15.6944L15.7984 13.76C15.6509 13.6961 15.4876 13.6777 15.3295 13.7072C15.1715 13.7368 15.0258 13.8128 14.9112 13.9256V13.9256Z" fill="white" fill-opacity="0.5"/>
</svg>
