<svg width="40" height="40" viewBox="0 0 40 40" fill="none" xmlns="http://www.w3.org/2000/svg">
<rect width="40" height="40" rx="20" fill="white"/>
<path d="M32.1094 22.3438V17.6562C32.1094 17.0653 31.6693 16.5667 31.0828 16.4934L29.0723 16.2421L30.3163 14.6427C30.6791 14.1762 30.6377 13.5124 30.2198 13.0946L26.9053 9.78008C26.4875 9.36219 25.8238 9.32094 25.3573 9.68367L23.7579 10.9277L23.5066 8.91719C23.4333 8.3307 22.9348 7.89062 22.3438 7.89062H17.6562C17.0652 7.89062 16.5667 8.3307 16.4934 8.91719L16.2421 10.9277L14.6427 9.68367C14.1763 9.32102 13.5126 9.36219 13.0947 9.78008L9.78016 13.0946C9.36227 13.5125 9.32094 14.1762 9.68375 14.6427L10.9277 16.2421L8.91719 16.4934C8.3307 16.5667 7.89062 17.0653 7.89062 17.6562V22.3438C7.89062 22.9347 8.3307 23.4333 8.91719 23.5066L10.9277 23.7579L9.68375 25.3573C9.32086 25.8237 9.36219 26.4874 9.78008 26.9053L13.0946 30.2199C13.5126 30.6379 14.1763 30.6792 14.6427 30.3163L16.2421 29.0723L16.4934 31.0828C16.5667 31.6693 17.0652 32.1094 17.6562 32.1094H22.3438C22.9348 32.1094 23.4333 31.6693 23.5066 31.0828L23.7579 29.0723L25.3573 30.3163C25.8238 30.6791 26.4875 30.6379 26.9054 30.2199L30.2199 26.9053C30.6378 26.4873 30.6791 25.8237 30.3163 25.3573L29.0723 23.7579L31.0828 23.5066C31.6693 23.4333 32.1094 22.9348 32.1094 22.3438ZM20 23.9062C17.8461 23.9062 16.0938 22.1539 16.0938 20C16.0938 17.8461 17.8461 16.0938 20 16.0938C22.1539 16.0938 23.9062 17.8461 23.9062 20C23.9062 22.1539 22.1539 23.9062 20 23.9062Z" fill="#2246DC"/>
<path d="M37.2252 9.84215C36.8962 9.28511 36.1779 9.10019 35.6208 9.42918C35.0637 9.75816 34.8789 10.4765 35.2079 11.0336C39.3003 17.9627 38.1786 26.782 32.4803 32.4803C26.1309 38.8297 16.1077 39.3206 9.19005 33.9534L11.9155 33.3477C12.5471 33.2074 12.9453 32.5816 12.805 31.95C12.6647 31.3185 12.039 30.92 11.4073 31.0606L6.43724 32.165C5.90123 32.2842 5.5199 32.7595 5.5199 33.3086V38.2786C5.5199 38.9255 6.04435 39.45 6.69138 39.45C7.33834 39.45 7.86287 38.9256 7.86287 38.2786V35.8895C11.3317 38.5505 15.5548 39.9926 20.0001 39.9926C25.3403 39.9926 30.3609 37.9131 34.137 34.1369C40.5915 27.6825 41.8614 17.6921 37.2252 9.84215V9.84215Z" fill="#2246DC"/>
<path d="M7.51967 7.51975C13.869 1.17037 23.8923 0.679512 30.8099 6.0467L28.0844 6.6524C27.4529 6.79271 27.0547 7.4185 27.195 8.05006C27.3163 8.59607 27.8004 8.96764 28.3374 8.96764C28.4215 8.96764 28.5071 8.95857 28.5926 8.93951L33.5627 7.83506C34.0987 7.71592 34.4801 7.24053 34.4801 6.69154V1.72131C34.4801 1.07436 33.9556 0.549824 33.3086 0.549824C32.6616 0.549824 32.1371 1.07428 32.1371 1.72131V4.11037C28.6683 1.44943 24.4452 0.00732422 20 0.00732422C14.6598 0.00732422 9.63913 2.08686 5.86303 5.86303C-0.591498 12.3176 -1.86142 22.308 2.77475 30.1579C2.99335 30.5281 3.38374 30.7339 3.78452 30.7338C3.98702 30.7338 4.19217 30.6813 4.37913 30.5709C4.93624 30.2419 5.12108 29.5236 4.7921 28.9665C0.699674 22.0374 1.82131 13.2181 7.51967 7.51975V7.51975Z" fill="#2246DC"/>
</svg>
