<svg width="124" height="124" viewBox="0 0 124 124" fill="none" xmlns="http://www.w3.org/2000/svg">
<g opacity="0.4">
<path d="M0 50.6331L44.7608 76.2601L56.3893 61.6699L9.25734 36.7838L0 50.6331Z" fill="white"/>
<path d="M67.4854 61.6155L79.157 76.2603L124 50.5862L114.617 35.7732L67.4854 61.6155Z" fill="white"/>
<path d="M16.05 32.1594L61.9266 56.3826L107.869 31.1923L62.0265 9.53845L16.05 32.1594Z" fill="white"/>
<path d="M11.688 89.834L58.33 114.462V70.8827L48.4964 83.221C47.3804 84.6215 45.4104 84.9986 43.8562 84.1086L11.688 65.6914V89.834Z" fill="white"/>
<path d="M65.5879 70.8827V114.349L112.23 88.739V65.6912L80.0617 84.1083C78.5077 84.9978 76.5375 84.621 75.4218 83.2207L65.5879 70.8827Z" fill="white"/>
</g>
</svg>
