<svg width="1344" height="80" viewBox="0 0 1344 80" fill="none" xmlns="http://www.w3.org/2000/svg">
<rect width="1344" height="80" rx="16" fill="white"/>
<path d="M81.5869 52.141H75.0459L73.0721 47.3443H62.2164L60.3803 52.141H54L63.8 27.859H70.823L81.5869 52.141ZM67.3803 33.6656L63.823 43.0984H71.3049L67.3803 33.6656Z" fill="#A1A1B2"/>
<path d="M105.272 27.859H110.528V52.141H104.492V36.9705L97.9279 44.5672H97.0099L90.446 36.9705V52.141H84.4099V27.859H89.6656L97.4689 36.8787L105.272 27.859Z" fill="#A1A1B2"/>
<path d="M125.882 27.859C134.764 27.859 139.308 33.3672 139.308 40.0229C139.308 47 134.902 52.141 125.216 52.141H115.164V27.859H125.882ZM121.2 47.7115H125.148C131.252 47.7115 133.043 43.5574 133.043 40C133.043 35.8229 130.793 32.2885 125.079 32.2885H121.2V47.7115Z" fill="#A1A1B2"/>
<path d="M163.866 33.6426H151.334L143.738 26H171.508V53.7705L163.866 46.1508V33.6426Z" fill="#A1A1B2"/>
<path d="M151.334 46.1737V35.1344L143.462 43.0065V54H154.479L162.328 46.1737H151.334Z" fill="#A1A1B2"/>
<g clip-path="url(#clip0_17_4069)">
<path d="M326.604 33.2122C324.546 33.2122 322.102 34.2413 320.686 36.1709V33.5981H315.669V51.8652H320.686V41.3166C320.686 39.3869 322.102 37.4573 324.803 37.4573C326.861 37.4573 329.048 38.8724 329.048 41.3166V51.7365H334.065V40.4161C334.065 36.1709 331.106 33.2122 326.604 33.2122Z" fill="#A1A1B2"/>
<path d="M369.644 33.4833L365.142 45.8328L360.64 33.3546H354.979L362.441 51.6217H367.972L375.433 33.3546H369.644V33.4833Z" fill="#A1A1B2"/>
<path d="M300.695 38.9703C301.595 37.8125 302.882 37.1693 304.554 37.1693C306.355 37.1693 307.77 38.1984 308.413 39.7421L299.666 43.3441C299.537 41.4144 299.923 39.9994 300.695 38.9703ZM310.343 46.0455C308.285 47.5892 306.998 47.9752 305.069 47.9752C303.396 47.9752 301.981 47.4606 301.081 46.5601L313.945 41.2858C313.688 39.3562 312.916 37.5552 311.758 36.1401C310.086 34.2105 307.513 33.1814 304.554 33.1814C299.022 33.1814 294.906 37.2979 294.906 42.5722C294.906 48.1038 299.022 51.963 305.069 51.963C308.413 51.963 311.887 50.4193 313.559 48.4897L310.343 46.0455Z" fill="#A1A1B2"/>
<path d="M294.317 47.1389H282.868V28.1H277.851V51.77H294.317V47.1389Z" fill="#A1A1B2"/>
<path d="M384.442 37.3881C381.612 37.3881 379.554 39.4464 379.554 42.5338C379.554 45.3639 381.741 47.6794 384.442 47.6794C387.272 47.6794 389.331 45.4925 389.331 42.5338C389.331 39.7037 387.144 37.3881 384.442 37.3881ZM384.442 52.0533C378.911 52.0533 374.666 47.9367 374.666 42.6624C374.666 37.3881 379.039 33.2716 384.442 33.2716C389.974 33.2716 394.219 37.3881 394.219 42.6624C394.219 47.8081 389.845 52.0533 384.442 52.0533Z" fill="#A1A1B2"/>
<path d="M345.777 37.3881C342.946 37.3881 340.888 39.4464 340.888 42.5338C340.888 45.3639 343.075 47.6794 345.777 47.6794C348.607 47.6794 350.665 45.4925 350.665 42.5338C350.665 39.7037 348.607 37.3881 345.777 37.3881ZM345.777 52.0533C340.245 52.0533 336 47.9367 336 42.6624C336 37.3881 340.374 33.2716 345.777 33.2716C351.308 33.2716 355.553 37.3881 355.553 42.6624C355.682 47.8081 351.308 52.0533 345.777 52.0533Z" fill="#A1A1B2"/>
</g>
<g clip-path="url(#clip1_17_4069)">
<path d="M518.429 29.8381H509.545L506.025 49.701H511.472L513.693 34.2381H514.238L516.501 49.701H521.949L518.429 29.8381Z" fill="#A1A1B2"/>
<path d="M544.158 49.701L543.907 34.741H543.404L540.848 49.701H535.526L532.97 34.741H532.467L532.215 49.701H527.145L527.941 29.8381H536.448L537.956 40.8172H538.417L539.884 29.8381H548.39L549.229 49.701H544.158Z" fill="#A1A1B2"/>
<path d="M575.377 45.301L575.335 29.8381H580.909V45.0496V45.1334V45.2172L580.95 45.301V45.3848V45.4267V45.5105L580.992 45.5943L581.034 45.6781V45.7619L581.076 45.8038L581.118 45.8877L581.16 45.9296L581.202 46.0134L581.244 46.0553L581.286 46.1391L581.328 46.181L581.369 46.2229L581.453 46.3067L581.495 46.3486L581.579 46.3905L581.621 46.4324L581.705 46.4743L581.747 46.5162H581.83L581.914 46.5581L581.956 46.6H582.04L582.124 46.6419H582.208H582.291L582.375 46.6838H582.459H582.543L582.585 46.6419H582.669H582.752L582.836 46.6H582.92L583.004 46.5581L583.046 46.5162H583.129L583.213 46.4743L583.255 46.4324L583.339 46.3905L583.381 46.3486L583.423 46.3067L583.507 46.2229L583.549 46.181L583.59 46.1391L583.632 46.0553L583.674 46.0134L583.716 45.9296L583.758 45.8877L583.8 45.8038L583.842 45.7619L583.884 45.6781V45.5943L583.926 45.5105V45.4267V45.3848L583.968 45.301V45.2172V45.1334V45.0496V29.8381H589.541V45.3848V45.72L589.499 46.0553L589.457 46.3486L589.373 46.6838L589.289 46.9772L589.206 47.2286L589.08 47.5219L588.912 47.7734L588.787 48.0248L588.619 48.2343L588.409 48.4858L588.242 48.6953L588.032 48.9048L587.781 49.1143L587.571 49.2819L587.32 49.4496L587.069 49.6172L586.817 49.7848L586.524 49.9105L586.23 50.0362L585.937 50.1619L585.644 50.2877L585.35 50.3715L585.057 50.4553L584.722 50.5391L584.429 50.6229L583.758 50.7067L583.088 50.7905H582.459H581.789L581.118 50.7067L580.489 50.581L580.154 50.5391L579.819 50.4553L579.526 50.3715L579.232 50.2458L578.939 50.1619L578.646 50.0362L578.352 49.8686L578.101 49.7429L577.808 49.5753L577.556 49.4077L577.305 49.24L577.095 49.0724L576.886 48.8629L576.676 48.6534L576.467 48.4438L576.299 48.1924L576.131 47.941L575.964 47.6896L575.838 47.4381L575.712 47.1867L575.587 46.8934L575.503 46.6L575.461 46.3067L575.377 45.9715V45.6362V45.301Z" fill="#A1A1B2"/>
<path d="M613.217 29.8381H608.398V42.2419H608.272L602.657 29.8381H596.707V49.701H601.526V38.0934H601.651L606.931 49.701H613.217V29.8381Z" fill="#A1A1B2"/>
<path d="M555.137 45.7619V43.1638H560.71L560.669 44.3371V44.6305V44.8819V45.0076L560.71 45.1333V45.259L560.752 45.3429L560.794 45.4686V45.5105L560.836 45.5524L560.878 45.6362V45.6781L560.92 45.72V45.7619L560.962 45.8038L561.004 45.8457L561.046 45.8876L561.088 45.9295L561.129 45.9714L561.171 46.0133L561.213 46.0552L561.255 46.0971H561.297L561.339 46.139L561.381 46.181H561.465L561.507 46.2229L561.549 46.2648H561.632L561.716 46.3067L561.842 46.3486H562.009L562.177 46.3905H562.345H562.387H562.429H562.47H562.512H562.554H562.596L562.638 46.3486H562.68H562.722L562.806 46.3067L562.889 46.2648L562.973 46.2229L563.057 46.181L563.141 46.0971L563.225 46.0552L563.309 45.9714L563.35 45.9295L563.434 45.8457L563.476 45.7619L563.56 45.6781L563.602 45.5524L563.644 45.4686L563.686 45.3848L563.728 45.259L563.769 45.1333V45.0495V44.9238V44.7981V44.6724V44.5048V44.379L563.728 44.2533L563.686 44.0857L563.644 43.96L563.56 43.7924L563.476 43.6248L563.434 43.541L563.392 43.499L563.35 43.4152L563.309 43.3314L563.267 43.2895L563.225 43.2057L563.099 43.08L562.973 42.9962L562.848 42.8705L562.68 42.7448L562.554 42.661L562.219 42.4514L561.884 42.2838L561.088 41.9067L560.208 41.4876L559.244 40.9848L558.699 40.6495L558.196 40.3143L557.693 39.9371L557.149 39.5181L557.065 39.4762L556.981 39.3924L556.939 39.3505L556.855 39.2667L556.771 39.1829L556.729 39.141L556.562 38.9733L556.478 38.8057L556.352 38.6381L556.227 38.4705L556.143 38.261L556.059 38.0514L555.975 37.8419L555.891 37.6324L555.849 37.4229L555.724 36.9619L555.64 36.501L555.556 36.04L555.514 35.579L555.472 35.0762V34.6152V34.1962L555.514 33.7771L555.556 33.3581L555.598 32.981L555.682 32.7295L555.724 32.4362L555.808 32.1848L555.933 31.9752L556.059 31.7238L556.185 31.5143L556.31 31.3048L556.478 31.0952L556.646 30.9276L556.813 30.7181L557.023 30.5505L557.232 30.3829L557.442 30.2571L557.651 30.0895L557.861 29.9638L558.112 29.8381L558.364 29.7124L558.615 29.6286L558.867 29.5029L559.16 29.419L559.705 29.2933L560.249 29.1676L560.836 29.0838L561.423 29.0419L562.051 29L562.638 29.0419L563.225 29.0838L563.811 29.1676L564.398 29.2514L564.985 29.3771L565.488 29.5448L566.032 29.7543L566.493 29.9638L566.745 30.0895L566.954 30.2152L567.164 30.341L567.373 30.4667L567.583 30.6343L567.75 30.76L567.918 30.9276L568.086 31.0952L568.253 31.2629L568.379 31.4305L568.505 31.5981L568.547 31.6819L568.589 31.8076L568.672 31.8914L568.714 31.9752L568.756 32.101V32.1848L568.798 32.2686L568.84 32.3943V32.4781L568.882 32.6038V32.6876L568.924 32.8133V32.8971V33.0229V35.7467H563.853L563.895 34.6152V34.3638L563.853 34.1124V33.9867V33.9029L563.811 33.7771L563.769 33.6933V33.6095V33.5676L563.728 33.5257V33.4838L563.686 33.4419L563.644 33.4V33.3581L563.602 33.3162L563.56 33.2743V33.2324H563.518L563.476 33.1905L563.434 33.1486L563.392 33.1067L563.35 33.0648H563.309L563.225 33.0229H563.183L563.141 32.981L563.099 32.939H563.015H562.973L562.806 32.8971L562.68 32.8552H562.512L562.345 32.8133H562.177H562.093L562.009 32.8552H561.968H561.884L561.8 32.8971L561.716 32.939H561.632L561.59 32.981L561.507 33.0229L561.423 33.0648L561.339 33.1067L561.297 33.1905L561.213 33.2324L561.171 33.3162L561.088 33.3581L561.046 33.4419L561.004 33.4838L560.962 33.5257V33.5676L560.92 33.6095V33.6514L560.878 33.6933V33.7352L560.836 33.7771V33.819V33.861L560.794 33.9448V33.9867V34.0286V34.0705V34.1543L560.752 34.1962V34.2381V34.3219L560.794 34.3638V34.4476V34.5733L560.836 34.699L560.878 34.8248L560.92 34.9924L560.962 35.1181L561.046 35.2857L561.171 35.4533L561.339 35.621L561.507 35.7886L561.632 35.9562L561.968 36.2495L562.303 36.501L562.638 36.7524L563.015 36.9619L563.392 37.1714L563.728 37.339L565.194 38.0095L565.949 38.3448L566.284 38.5124L566.619 38.68L566.954 38.8895L567.248 39.099L567.415 39.2248L567.583 39.3505L567.709 39.4762L567.834 39.6019L567.96 39.7276L568.128 39.8952L568.211 40.021L568.337 40.1886L568.463 40.3562L568.589 40.5238L568.672 40.7333L568.756 40.901L568.84 41.1105L568.924 41.32L569.008 41.5714L569.091 41.781L569.133 42.0324L569.175 42.2838L569.259 42.5771V42.8705L569.343 43.4571V44.1276L569.301 44.84L569.259 45.5943L569.217 45.8876L569.175 46.181L569.091 46.4743L569.008 46.7257L568.882 46.9771L568.756 47.2286L568.63 47.48L568.463 47.6895L568.295 47.899L568.128 48.1086L567.918 48.3181L567.709 48.4857L567.499 48.6533L567.289 48.821L567.038 48.9886L566.787 49.1562L566.535 49.2819L566.284 49.4076L565.99 49.5333L565.739 49.659L565.446 49.7429L565.152 49.8267L564.524 49.9943L563.895 50.12L563.267 50.2038L562.638 50.2457L562.009 50.2876L561.339 50.2457L560.71 50.2038L560.082 50.0781L559.495 49.9524L558.909 49.7848L558.322 49.6171L558.07 49.4914L557.777 49.3657L557.526 49.24L557.316 49.1143L557.065 48.9467L556.855 48.821L556.646 48.6533L556.436 48.4857L556.227 48.2762L556.059 48.1086L555.891 47.899L555.766 47.6895L555.598 47.48L555.556 47.3962L555.472 47.2705L555.43 47.1448L555.389 47.061L555.347 46.9352L555.305 46.8095L555.263 46.6838L555.221 46.5581V46.4324L555.179 46.3067V46.181L555.137 46.0552V45.9295V45.7619Z" fill="#A1A1B2"/>
<path d="M493.83 29L492.992 29.0419L492.196 29.1676L491.819 29.2095L491.484 29.2933L491.149 29.419L490.813 29.5029L490.52 29.6286L490.227 29.7124L489.933 29.8381L489.682 30.0057L489.43 30.1314L489.221 30.299L489.011 30.4667L488.802 30.6343L488.634 30.8019L488.425 30.9695L488.299 31.179L488.131 31.3467L488.006 31.5562L487.88 31.7657L487.754 31.9752L487.67 32.1848L487.545 32.3943L487.461 32.6038L487.419 32.8133L487.335 33.0229L487.293 33.2743L487.251 33.4838L487.21 33.7352V33.9448L487.168 34.4057V34.8667L487.21 35.3276L487.251 35.7467L487.335 36.2076L487.461 36.6267L487.587 37.0457L487.712 37.4229L487.838 37.8L488.006 38.1352L488.173 38.4705L488.341 38.7638L488.509 39.0152L488.592 39.099L488.676 39.2248L488.76 39.3086L488.844 39.3924L488.928 39.4343L488.97 39.4762L489.011 39.5181L489.556 39.9371L490.059 40.3143L490.604 40.6495L491.107 40.9848L492.07 41.4876L492.95 41.9067L493.747 42.2838L494.082 42.4514L494.417 42.661L494.585 42.7448L494.71 42.8705L494.836 42.9962L494.962 43.08L495.088 43.2057L495.13 43.2895L495.171 43.3314L495.213 43.4152L495.255 43.499L495.297 43.541L495.339 43.6248L495.423 43.7924L495.507 43.96L495.549 44.0857L495.59 44.2533L495.632 44.379V44.5048L495.674 44.6724V44.7981V44.9238L495.632 45.0495V45.1333L495.59 45.259L495.549 45.3848L495.507 45.4686L495.465 45.5524L495.423 45.6781L495.381 45.7619L495.297 45.8457L495.213 45.9295L495.171 45.9714L495.088 46.0552L495.004 46.0971L494.92 46.181L494.878 46.2229L494.794 46.2648L494.71 46.3067L494.627 46.3486H494.543H494.501L494.459 46.3905H494.417H494.375H494.333H494.291H494.25H494.208H494.04L493.872 46.3486H493.705L493.579 46.3067L493.495 46.2648H493.453L493.37 46.2229L493.328 46.181H493.244L493.202 46.139L493.16 46.0971H493.118L493.076 46.0552L493.034 46.0133L492.992 45.9714L492.95 45.9295L492.909 45.8876L492.867 45.8457L492.825 45.8038V45.7619L492.783 45.72L492.741 45.6781V45.6362L492.699 45.5524V45.5105L492.657 45.4686L492.615 45.3429V45.259L492.573 45.1333V45.0076L492.531 44.8819V44.6305V44.3371L492.573 43.1638H487V45.7619V45.9295V46.0552L487.042 46.181V46.3067L487.084 46.4324V46.5581L487.126 46.6838L487.168 46.8095L487.21 46.9352L487.251 47.061L487.293 47.1448L487.377 47.2705L487.419 47.3962L487.461 47.48L487.629 47.6895L487.754 47.899L487.922 48.1086L488.09 48.2762L488.299 48.4857L488.509 48.6533L488.718 48.821L488.928 48.9467L489.179 49.1143L489.43 49.24L489.682 49.3657L489.933 49.4914L490.185 49.6171L490.771 49.7848L491.358 49.9524L491.945 50.0781L492.573 50.2038L493.244 50.2457L493.872 50.2876L494.501 50.2457L495.171 50.2038L495.8 50.12L496.387 49.9943L497.015 49.8267L497.309 49.7429L497.602 49.659L497.853 49.5333L498.147 49.4076L498.398 49.2819L498.65 49.1562L498.901 48.9886L499.152 48.821L499.362 48.6533L499.613 48.4857L499.781 48.3181L499.99 48.1086L500.158 47.899L500.326 47.6895L500.493 47.48L500.619 47.2286L500.745 46.9771L500.87 46.7257L500.954 46.4743L501.038 46.181L501.08 45.8876L501.122 45.5943L501.164 44.84L501.206 44.1276V43.4571L501.164 42.8705L501.122 42.5771L501.08 42.2838L500.996 42.0324L500.954 41.781L500.87 41.5714L500.829 41.32L500.745 41.1105L500.619 40.901L500.535 40.7333L500.451 40.5238L500.326 40.3562L500.2 40.1886L500.116 40.021L499.99 39.8952L499.865 39.7276L499.697 39.6019L499.571 39.4762L499.446 39.3505L499.278 39.2248L499.152 39.099L498.817 38.8895L498.482 38.68L498.147 38.5124L497.811 38.3448L497.099 38.0095L495.59 37.339L495.255 37.1714L494.878 36.9619L494.543 36.7524L494.166 36.501L493.83 36.2495L493.537 35.9562L493.37 35.7886L493.202 35.621L493.076 35.4533L492.909 35.2857L492.825 35.1181L492.783 34.9924L492.741 34.8248L492.699 34.699L492.657 34.5733V34.4476V34.3638V34.3219V34.2381V34.1962V34.1543V34.0705V34.0286V33.9867V33.9448L492.699 33.861V33.819L492.741 33.7771V33.7352V33.6933L492.783 33.6514V33.6095L492.825 33.5676L492.867 33.5257V33.4838L492.909 33.4419L492.95 33.3581L493.034 33.3162L493.076 33.2324L493.16 33.1905L493.244 33.1067L493.286 33.0648L493.37 33.0229L493.453 32.981L493.537 32.939H493.579L493.663 32.8971L493.747 32.8552H493.83H493.914L493.956 32.8133H494.04H494.208L494.375 32.8552H494.543L494.71 32.8971L494.836 32.939H494.878H494.962L495.004 32.981L495.046 33.0229H495.13L495.171 33.0648H495.213L495.255 33.1067L495.297 33.1486L495.339 33.1905L495.381 33.2324H495.423V33.2743L495.465 33.3162L495.507 33.3581L495.549 33.4V33.4419L495.59 33.4838V33.5257L495.632 33.5676V33.6095L495.674 33.6933V33.7771L495.716 33.9029V33.9867L495.758 34.1124V34.3638V34.6152L495.716 35.7467H500.787V33.0229V32.8552V32.7295L500.745 32.5619V32.4362L500.703 32.3105L500.661 32.1848L500.619 32.059V31.9333L500.535 31.8076L500.493 31.6819L500.451 31.5562L500.368 31.4724L500.326 31.3467L500.242 31.2629L500.158 31.1371L500.116 31.0533L500.032 30.9276L499.949 30.8438L499.823 30.76L499.739 30.6762L499.571 30.5086L499.362 30.341L499.11 30.2152L498.901 30.0476L498.65 29.9219L498.398 29.8381L498.147 29.7124L497.853 29.6286L497.309 29.461L496.722 29.2933L496.177 29.2095L495.549 29.1257L494.962 29.0419L493.83 29Z" fill="#A1A1B2"/>
<path d="M627.339 50.9999H627.968H628.596L629.141 50.958L629.644 50.9161L630.105 50.8323L630.524 50.7066L630.733 50.6647L630.943 50.5809L631.11 50.4971L631.278 50.4552L631.446 50.3714L631.613 50.2876L631.781 50.2037L631.907 50.078L632.074 49.9942L632.2 49.9104L632.326 49.7847L632.409 49.7009L632.535 49.5752L632.619 49.4914L632.745 49.3656L632.829 49.2399L632.912 49.1142L632.996 48.9885L633.08 48.8628L633.122 48.7371L633.206 48.6114L633.248 48.4856L633.331 48.2342L633.415 47.9828L633.499 47.6895L633.541 47.438L633.583 47.1447L633.625 46.8933L633.667 46.5999V46.0971V45.5942V44.7142V39.3085H627.088V42.158H628.429V45.5942V45.6361V45.7199V45.8037L628.387 45.8876V45.9295V46.0133L628.345 46.0552L628.303 46.139V46.2228L628.261 46.2647L628.219 46.3066L628.177 46.3904L628.135 46.4323L628.093 46.4742L628.051 46.558L628.009 46.5999L627.968 46.6418L627.926 46.6837L627.842 46.7256L627.8 46.7676L627.758 46.8095L627.674 46.8514L627.632 46.8933H627.549L627.507 46.9352H627.423L627.381 46.9771H627.297H627.213L627.129 47.019H627.088H627.004H626.92H626.836L626.794 46.9771H626.71H626.627L626.585 46.9352H626.501L626.459 46.8933H626.375L626.333 46.8514L626.249 46.8095L626.208 46.7676L626.166 46.7256L626.082 46.6837L626.04 46.6418L625.998 46.5999L625.956 46.558L625.914 46.4742L625.872 46.4323L625.83 46.3904L625.789 46.3066L625.747 46.2647L625.705 46.2228V46.139L625.663 46.0552L625.621 46.0133V45.9295V45.8876L625.579 45.8037V45.7199V45.6361V45.5942V34.4895V34.4056V34.3637V34.2799L625.621 34.1961V34.1123V34.0704L625.663 33.9866L625.705 33.9447V33.8609L625.747 33.819L625.789 33.7352L625.83 33.6933L625.872 33.6514L625.914 33.5676L625.956 33.5256L625.998 33.4837L626.04 33.4418L626.082 33.3999L626.166 33.358L626.208 33.3161L626.249 33.2742L626.333 33.2323L626.375 33.1904H626.459L626.501 33.1485L626.585 33.1066H626.627H626.71L626.794 33.0647H626.836H626.92H627.004H627.088H627.129H627.213L627.297 33.1066H627.381H627.423L627.507 33.1485L627.549 33.1904H627.632L627.674 33.2323L627.758 33.2742L627.8 33.3161L627.842 33.358L627.926 33.3999L627.968 33.4418L628.009 33.4837L628.051 33.5256L628.093 33.5676L628.135 33.6514L628.177 33.6933L628.219 33.7352L628.261 33.819L628.303 33.8609V33.9447L628.345 33.9866L628.387 34.0704V34.1123V34.1961L628.429 34.2799V34.3637V34.4056V34.4895V36.3333H633.667V34.0704L633.625 33.7771V33.6095V33.4837L633.583 33.358V33.2323L633.541 33.1066L633.499 32.9809L633.457 32.8552L633.415 32.7295L633.373 32.6037L633.331 32.478L633.248 32.3523L633.206 32.2266L633.08 32.0171L632.912 31.8076L632.787 31.598L632.577 31.3885L632.409 31.2209L632.2 31.0533L631.99 30.8856L631.781 30.718L631.571 30.5504L631.32 30.4247L631.069 30.299L630.817 30.1733L630.524 30.0476L630.272 29.9637L629.979 29.838L629.392 29.6704L628.806 29.5447L628.177 29.4609L627.549 29.419L626.92 29.3771L626.291 29.419L625.705 29.4609L625.076 29.5447L624.49 29.6704L623.903 29.838L623.609 29.9218L623.358 30.0056L623.065 30.1314L622.813 30.2571L622.562 30.3828L622.31 30.5085L622.101 30.6761L621.891 30.8437L621.682 31.0114L621.472 31.179L621.263 31.3466L621.095 31.5561L620.97 31.7656L620.802 31.9752L620.676 32.1847L620.634 32.3104L620.55 32.3942L620.509 32.5199L620.467 32.6456L620.425 32.7714L620.383 32.8971L620.341 33.0228L620.299 33.1485V33.2742L620.257 33.3999V33.5256V33.6933L620.215 33.9866V46.4742V46.6418L620.257 46.8095V47.019V47.1866L620.299 47.3542L620.341 47.5218L620.383 47.6895L620.425 47.8152L620.467 47.9828L620.509 48.1085L620.592 48.2761L620.634 48.4018L620.718 48.5276L620.802 48.6533L620.844 48.779L620.928 48.9047L621.053 49.0304L621.137 49.1142L621.221 49.2399L621.305 49.3237L621.43 49.4495L621.514 49.5333L621.766 49.7009L621.975 49.8685L622.227 50.0361L622.478 50.1618L622.771 50.2876L623.023 50.4133L623.316 50.4971L623.609 50.5809L623.903 50.6647L624.49 50.8323L625.076 50.9161L625.705 50.958L626.291 50.9999H626.836H627.339Z" fill="#A1A1B2"/>
</g>
<path d="M777.337 26C779.203 27.26 781.163 28.45 782.96 29.8267C778.923 32.3467 774.98 34.9833 770.943 37.55C771.55 38.0167 772.25 38.4133 772.857 38.8567C776.917 36.29 780.953 33.7467 784.967 31.1333C786.787 32.2533 788.56 33.3967 790.217 34.6567C786.18 37.2233 782.26 39.8833 778.27 42.4733C778.853 42.94 779.6 43.29 780.253 43.7333C784.383 41.2133 788.42 38.5767 792.503 35.9867C792.503 33.1633 792.503 30.3167 792.503 27.4933C795.467 27.4933 798.477 27.4933 801.487 27.4933C801.487 33.1167 801.487 38.7633 801.487 44.3867C804.007 44.5267 806.807 44.41 809.443 44.4567C809.443 47.1167 809.443 49.7533 809.443 52.4133C803.82 52.4133 798.173 52.4133 792.55 52.4133C792.55 49.7067 792.55 47.0467 792.55 44.3633C787.557 47.3733 782.47 50.78 777.5 54C772.32 50.6167 767.303 47.0467 762.1 43.6633C760.607 48.4467 757.013 52.0167 751.11 52.4367C747.423 52.7167 743.223 52.2267 739 52.4367C739 44.1533 739 35.8233 739 27.5167C744.32 27.8667 750.13 26.7933 754.353 28.1C758.063 29.2667 760.7 32.23 761.937 35.9167C767.07 32.65 772.203 29.3133 777.337 26ZM747.47 35.4967C747.47 38.46 747.47 41.47 747.47 44.4333C749.617 44.4333 751.227 44.5733 752.487 43.6167C754.353 42.1933 754.75 38.6 753.07 36.6867C751.973 35.4267 750.107 35.1467 747.517 35.31C747.47 35.31 747.47 35.4267 747.47 35.4967Z" fill="#A1A1B2"/>
<path d="M811.753 27.47C814.763 27.47 817.727 27.47 820.69 27.47C820.69 33.14 820.69 38.7633 820.69 44.4333C823.327 44.4333 825.94 44.4333 828.577 44.4333C828.577 47.0933 828.577 49.73 828.577 52.39C822.953 52.39 817.307 52.39 811.683 52.39C811.683 44.13 811.683 35.8933 811.683 27.68C811.683 27.5633 811.683 27.4933 811.753 27.47Z" fill="#A1A1B2"/>
<path d="M1080.67 30.5161H1079.51V30.043H1082.34V30.5161H1081.18V33.7849H1080.67V30.5161Z" fill="#A1A1B2"/>
<path d="M1082.9 30.043H1083.76L1084.97 33.1397L1086.13 30.043H1086.99V33.7849H1086.47V30.5591H1086.43L1085.23 33.7849H1084.67L1083.46 30.5591H1083.42V33.7849H1082.9V30.043Z" fill="#A1A1B2"/>
<path d="M958.559 30H953.226V49.871H958.559V30Z" fill="#A1A1B2"/>
<path d="M990 30H996.538L1004.24 50H998.387L996.882 45.7419H989.398L987.807 50H982.387L990 30ZM993.269 34.129H993.226L990.645 41.957H995.635L993.269 34.129Z" fill="#A1A1B2"/>
<path d="M1006.82 30H1016.02C1019.72 30 1022.52 31.6344 1022.52 35.0753C1022.52 37.6129 1021.23 38.9892 1018.99 39.7634V39.8065C1021.66 40.3656 1023.03 41.7849 1023.03 44.2366C1023.03 49.0108 1018.82 50 1015.25 50H1006.82V30V30ZM1012.15 46.2151H1013.74C1015.68 46.2151 1017.7 45.914 1017.7 43.8925C1017.7 41.6989 1015.59 41.5269 1013.78 41.5269H1012.15V46.2151ZM1012.15 37.914H1013.66C1015.42 37.914 1017.23 37.4839 1017.23 35.8065C1017.23 33.957 1015.51 33.7849 1013.74 33.7849H1012.15V37.914Z" fill="#A1A1B2"/>
<path d="M1030.21 42.4731L1022.86 30H1028.97L1032.88 38.043L1036.75 30H1042.9L1035.55 42.4731V50H1030.21V42.4731Z" fill="#A1A1B2"/>
<path d="M1050 33.957H1045.1V30H1060.24V33.957H1055.33V50H1050V33.957Z" fill="#A1A1B2"/>
<path d="M1062.77 30H1076.88V33.7849H1068.11V37.914H1076.37V41.6989H1068.11V46.2151H1077.18V50H1062.77V30Z" fill="#A1A1B2"/>
<path d="M941.14 34.3871C937.613 34.6882 935.677 37.0108 935.677 40.0215C935.677 42.9463 938.387 45.3979 941.011 45.3979H941.57H942.559C942.559 45.3979 943.204 45.3979 943.204 44.7527V38.4731H948.667C948.667 42 948.667 50 948.667 50C948.667 50 943.29 50 940.151 50C934.215 50 930 45.1398 930 40.0215C930 34.5161 934.559 29.871 940.28 30.086L948.452 30.129V34.3871H941.14Z" fill="#A1A1B2"/>
<path d="M972.796 34.3871C969.269 34.6882 967.333 37.0108 967.333 40.0215C967.333 42.9463 970.043 45.3979 972.666 45.3979H973.226H974.215C974.215 45.3979 974.86 45.3979 974.86 44.7527V38.4731H980.322C980.322 42 980.322 50 980.322 50C980.322 50 974.946 50 971.806 50C965.914 50 961.699 45.1398 961.699 40.0215C961.699 34.5161 966.258 29.871 971.978 30.086L980.15 30.129V34.3871H972.796Z" fill="#A1A1B2"/>
<path d="M1182.51 28L1181.82 28.1069L1181.02 28.3742L1180.37 28.7483L1180 29.1225L1176.02 34.5479H1226.26V28.1604L1201.84 28.0535L1199.8 28.4276L1198.55 28.9354L1197.67 29.5768L1196.68 30.6459L1195.93 31.6347L1194.94 33.4788V28.0535H1183.15H1183.07H1182.51V28ZM1265.42 28L1264.08 28.1871L1263.12 28.3742L1262.05 28.882L1261.09 29.5234L1260.45 30.2183L1259.46 31.5546L1258.95 32.8107L1258.49 34.3341V34.5212H1289.84V28.1336L1265.42 28ZM1227.47 28.1069V34.4944H1234.76V28.1069H1227.47ZM1250.72 28.1069V34.4944H1258.07V28.1069H1250.72ZM1296.9 28.1871C1295.06 28.1871 1293.53 29.7105 1293.53 31.5546C1293.53 33.3987 1295.06 34.8953 1296.9 34.8953C1298.74 34.8953 1300.24 33.4254 1300.24 31.5546C1300.24 29.6837 1298.72 28.1871 1296.9 28.1871ZM1296.9 28.7483C1298.42 28.7483 1299.68 30.0045 1299.68 31.5546C1299.68 33.078 1298.42 34.3341 1296.9 34.3341C1295.38 34.3341 1294.12 33.1047 1294.12 31.5546C1294.09 30.0045 1295.35 28.7483 1296.9 28.7483ZM1296.71 29.4165C1296.42 29.4165 1295.86 29.4165 1295.67 29.4432C1295.48 29.4432 1295.46 29.5501 1295.46 29.7639V33.3987C1295.46 33.4788 1295.54 33.559 1295.56 33.559H1296.15C1296.23 33.559 1296.26 33.4788 1296.26 33.3987V31.9555H1296.42H1296.69C1296.71 31.9555 1296.79 31.9822 1296.79 32.0356L1297.65 33.4521C1297.65 33.5323 1297.67 33.559 1297.75 33.559H1298.34C1298.42 33.559 1298.45 33.4788 1298.45 33.4521V33.3452L1297.57 31.8753C1298.02 31.7149 1298.34 31.3942 1298.34 30.8062V30.7261C1298.34 29.7105 1297.75 29.4165 1296.71 29.4165ZM1296.23 30.1114H1296.34H1296.74C1297.3 30.1114 1297.51 30.2717 1297.51 30.6726V30.7528C1297.51 31.127 1297.3 31.314 1296.74 31.314H1296.23V30.1114ZM1175.67 34.7617V34.8419L1163.4 51.8129H1172.28L1184.17 35.4031L1175.67 34.7617ZM1227.47 34.7617L1227.57 43.4477L1226.93 41.8708L1226.48 41.069L1225.78 40.1871L1224.71 39.1982L1223.83 38.6904L1222.57 38.2361L1221.51 37.9688L1195.15 36.3118L1196.04 38.4499L1196.54 39.2249L1197.24 40.0267V40.1069L1197.69 40.4811H1197.77L1198.23 40.8552L1200.63 41.7372H1200.82L1201.19 41.8174H1201.27L1202.08 41.9243L1219.93 43.0735L1220.38 43.2606L1220.65 43.4477L1220.84 43.7149L1221.02 43.9822V44.0624V44.2494V44.5167V44.5969L1220.94 44.784L1220.76 45.0512L1220.68 45.1314L1220.41 45.3185L1220.22 45.4254H1220.04H1219.96L1194.91 45.5056V36.1782L1187.7 35.7238V51.8931L1219.69 52L1221.26 51.8129L1223.11 51.3051L1224.53 50.5033L1225.67 49.5412L1226.18 48.8998L1226.88 48.0178L1227.25 47.216L1227.63 46.0668L1227.81 47.0289L1228 47.6704L1228.64 49.0869L1229.15 49.7283L1229.52 50.1826L1230.49 50.8775L1231.29 51.2517L1232.54 51.706L1234.44 51.9733H1251.52L1253.66 51.5189L1254.43 51.1448L1255.5 50.5033L1256.38 49.6214L1257.02 48.6592L1257.4 48.1514L1257.77 46.8953L1257.96 45.8263V51.9733H1283.43L1285.38 51.5991L1286.45 51.2249L1287.71 50.5835L1288.77 49.7817L1289.84 48.7127L1290.3 48.0178L1290.75 46.9488L1290.94 46.0668L1291.02 44.5434L1290.83 43.3942L1290.46 42.3252L1289.82 41.1759L1289.31 40.4811L1288.35 39.5189L1287.71 39.1448L1286.37 38.4499L1285.38 38.1826L1284.74 38.1025H1284.55L1284.37 38.0223H1284.18L1258.52 36.2583V36.4454L1258.71 37.3274L1259.59 38.9042L1260.58 40.1604L1260.66 40.2405L1260.74 40.3474L1261.11 40.6147L1261.89 41.069L1264.11 41.8708L1283.22 43.2071H1283.3L1283.75 43.2873L1283.94 43.4744H1284.04L1284.12 43.5546L1284.2 43.6347V43.7416L1284.31 43.8218V43.902L1284.39 44.2762V44.4632L1284.31 44.7305V44.9176L1284.2 44.9978V45.0779H1284.12L1284.04 45.1849L1283.94 45.265H1283.86L1283.78 45.3452L1283.51 45.4254H1283.32L1283.24 45.5323H1257.99L1258.09 44.3831L1257.91 36.2851L1250.8 35.9109V44.0891V44.4632L1250.69 44.7305L1250.61 44.9978L1250.53 45.0779L1250.42 45.1849H1250.34V45.265V45.3452L1249.89 45.6125L1249.43 45.6926H1249.06H1237.09L1236.9 45.7996H1236.63L1236.55 45.6926H1236.47H1236.07H1235.99L1235.88 45.6125L1235.43 45.4254H1235.32L1235.24 45.3452L1235.16 45.265L1235.06 45.1849H1234.98V45.0779L1234.79 44.8909L1234.6 44.6236L1234.52 44.3563V44.2494V44.0624V43.9554V43.8753V35.2695L1227.47 34.7617ZM1195.15 36.2851H1195.05H1195.15Z" fill="#A1A1B2"/>
<defs>
<clipPath id="clip0_17_4069">
<rect width="116.327" height="24" fill="white" transform="translate(277.894 28)"/>
</clipPath>
<clipPath id="clip1_17_4069">
<rect width="146.667" height="22" fill="white" transform="translate(487 29)"/>
</clipPath>
</defs>
</svg>
