<svg width="970" height="105" viewBox="0 0 970 105" fill="none" xmlns="http://www.w3.org/2000/svg">
<path d="M1 104H0V105H1V104ZM962 104V105H963V104H962ZM962.707 0.292893C962.317 -0.0976311 961.683 -0.0976311 961.293 0.292893L954.929 6.65685C954.538 7.04738 954.538 7.68054 954.929 8.07107C955.319 8.46159 955.953 8.46159 956.343 8.07107L962 2.41421L967.657 8.07107C968.047 8.46159 968.681 8.46159 969.071 8.07107C969.462 7.68054 969.462 7.04738 969.071 6.65685L962.707 0.292893ZM0 47.5V104H2V47.5H0ZM1 105H962V103H1V105ZM963 104V1H961V104H963Z" fill="#4E64E3"/>
</svg>
