<svg width="124" height="124" viewBox="0 0 124 124" fill="none" xmlns="http://www.w3.org/2000/svg">
<g opacity="0.2">
<path d="M123.884 41.6873L116.87 13.6167C116.01 10.168 112.91 7.75 109.352 7.75H14.6553C11.098 7.75 7.998 10.168 7.13 13.6167L0.11625 41.6873C0.03875 41.9895 0 42.3072 0 42.625C0 53.3045 8.25375 62 18.4062 62C24.304 62 29.5662 59.0627 32.9375 54.5057C36.3088 59.0627 41.571 62 47.4688 62C53.3665 62 58.6287 59.0627 62 54.5057C65.3713 59.0627 70.6257 62 76.5312 62C82.4368 62 87.6912 59.0627 91.0625 54.5057C94.4338 59.0627 99.6882 62 105.594 62C115.746 62 124 53.3045 124 42.625C124 42.3072 123.961 41.9895 123.884 41.6873Z" fill="white"/>
<path d="M105.594 69.7501C100.316 69.7501 95.3017 68.1381 91.0625 65.1931C82.584 71.0909 70.4785 71.0909 62 65.1931C53.5215 71.0909 41.416 71.0909 32.9375 65.1931C28.6983 68.1381 23.684 69.7501 18.4062 69.7501C14.601 69.7501 11.0128 68.8589 7.75 67.3399V108.5C7.75 112.778 11.222 116.25 15.5 116.25H46.5V85.2501H77.5V116.25H108.5C112.778 116.25 116.25 112.778 116.25 108.5V67.3399C112.987 68.8589 109.399 69.7501 105.594 69.7501Z" fill="white"/>
</g>
</svg>
