<svg width="40" height="40" viewBox="0 0 40 40" fill="none" xmlns="http://www.w3.org/2000/svg">
<rect width="40" height="40" rx="20" fill="white"/>
<g clip-path="url(#clip0_17_4138)">
<path d="M39.46 13.1367L20.71 0.22C20.2833 -0.0733333 19.72 -0.0733333 19.2917 0.22L0.541667 13.1367C0.201667 13.37 0 13.755 0 14.1667V38.3333C0 39.2533 0.746667 40 1.66667 40H5V20C5 19.08 5.74667 18.3333 6.66667 18.3333H33.3333C34.2533 18.3333 35 19.08 35 20V40H38.3333C39.2533 40 40 39.2533 40 38.3333V14.1667C40 13.755 39.7983 13.37 39.46 13.1367Z" fill="#2246DC"/>
<path d="M15.4167 31.6667V32.9167C15.4167 33.6067 14.8567 34.1667 14.1667 34.1667C13.4767 34.1667 12.9167 33.6067 12.9167 32.9167V31.6667H10.0001C9.54008 31.6667 9.16675 32.0401 9.16675 32.5001V39.1667C9.16675 39.6267 9.54008 40.0001 10.0001 40.0001H18.3334C18.7934 40.0001 19.1667 39.6267 19.1667 39.1667V32.5001C19.1667 32.0401 18.7934 31.6667 18.3334 31.6667H15.4167Z" fill="#2246DC"/>
<path d="M27.0833 31.6667V32.9167C27.0833 33.6067 26.5233 34.1667 25.8333 34.1667C25.1433 34.1667 24.5833 33.6067 24.5833 32.9167V31.6667H21.6666C21.2066 31.6667 20.8333 32.0401 20.8333 32.5001V39.1667C20.8333 39.6267 21.2066 40.0001 21.6666 40.0001H29.9999C30.4599 40.0001 30.8333 39.6267 30.8333 39.1667V32.5001C30.8333 32.0401 30.4599 31.6667 29.9999 31.6667H27.0833Z" fill="#2246DC"/>
<path d="M21.25 21.6667V22.9167C21.25 23.6067 20.69 24.1667 20 24.1667C19.31 24.1667 18.75 23.6067 18.75 22.9167V21.6667H15.8333C15.3733 21.6667 15 22.0401 15 22.5001V29.1667C15 29.6267 15.3733 30.0001 15.8333 30.0001H24.1667C24.6267 30.0001 25 29.6267 25 29.1667V22.5001C25 22.0401 24.6267 21.6667 24.1667 21.6667H21.25Z" fill="#2246DC"/>
</g>
<defs>
<clipPath id="clip0_17_4138">
<rect width="40" height="40" fill="white"/>
</clipPath>
</defs>
</svg>
