<svg width="213" height="97" viewBox="0 0 213 97" fill="none" xmlns="http://www.w3.org/2000/svg">
<path fill-rule="evenodd" clip-rule="evenodd" d="M0 1.64155C0 0.734948 0.734943 4.22762e-06 1.64155 4.22762e-06C2.54815 4.22762e-06 3.2831 0.734948 3.2831 1.64155C3.2831 2.54816 2.54815 3.2831 1.64155 3.2831C0.734943 3.2831 0 2.54816 0 1.64155Z" fill="#6C6C6C"/>
<path fill-rule="evenodd" clip-rule="evenodd" d="M23.3006 1.64155C23.3006 0.734948 24.0355 4.22762e-06 24.9421 4.22762e-06C25.8487 4.22762e-06 26.5837 0.734948 26.5837 1.64155C26.5837 2.54816 25.8487 3.2831 24.9421 3.2831C24.0355 3.2831 23.3006 2.54816 23.3006 1.64155Z" fill="#6C6C6C"/>
<path fill-rule="evenodd" clip-rule="evenodd" d="M46.6051 1.64155C46.6051 0.734948 47.34 4.22762e-06 48.2466 4.22762e-06C49.1532 4.22762e-06 49.8882 0.734948 49.8882 1.64155C49.8882 2.54816 49.1532 3.2831 48.2466 3.2831C47.34 3.2831 46.6051 2.54816 46.6051 1.64155Z" fill="#6C6C6C"/>
<path fill-rule="evenodd" clip-rule="evenodd" d="M69.9056 1.64155C69.9056 0.734948 70.6406 4.22762e-06 71.5472 4.22762e-06C72.4538 4.22762e-06 73.1887 0.734948 73.1887 1.64155C73.1887 2.54816 72.4538 3.2831 71.5472 3.2831C70.6406 3.2831 69.9056 2.54816 69.9056 1.64155Z" fill="#6C6C6C"/>
<path fill-rule="evenodd" clip-rule="evenodd" d="M93.2062 1.64155C93.2062 0.734948 93.9411 4.22762e-06 94.8478 4.22762e-06C95.7544 4.22762e-06 96.4893 0.734948 96.4893 1.64155C96.4893 2.54816 95.7544 3.2831 94.8478 3.2831C93.9411 3.2831 93.2062 2.54816 93.2062 1.64155Z" fill="#6C6C6C"/>
<path fill-rule="evenodd" clip-rule="evenodd" d="M116.511 1.64155C116.511 0.734948 117.246 4.22762e-06 118.152 4.22762e-06C119.059 4.22762e-06 119.794 0.734948 119.794 1.64155C119.794 2.54816 119.059 3.2831 118.152 3.2831C117.246 3.2831 116.511 2.54816 116.511 1.64155Z" fill="#6C6C6C"/>
<path fill-rule="evenodd" clip-rule="evenodd" d="M139.811 1.64155C139.811 0.734948 140.546 4.22762e-06 141.453 4.22762e-06C142.359 4.22762e-06 143.094 0.734948 143.094 1.64155C143.094 2.54816 142.359 3.2831 141.453 3.2831C140.546 3.2831 139.811 2.54816 139.811 1.64155Z" fill="#6C6C6C"/>
<path fill-rule="evenodd" clip-rule="evenodd" d="M163.116 1.64155C163.116 0.734948 163.851 4.22762e-06 164.757 4.22762e-06C165.664 4.22762e-06 166.399 0.734948 166.399 1.64155C166.399 2.54816 165.664 3.2831 164.757 3.2831C163.851 3.2831 163.116 2.54816 163.116 1.64155Z" fill="#6C6C6C"/>
<path fill-rule="evenodd" clip-rule="evenodd" d="M186.416 1.64155C186.416 0.734948 187.151 4.22762e-06 188.058 4.22762e-06C188.964 4.22762e-06 189.699 0.734948 189.699 1.64155C189.699 2.54816 188.964 3.2831 188.058 3.2831C187.151 3.2831 186.416 2.54816 186.416 1.64155Z" fill="#6C6C6C"/>
<path fill-rule="evenodd" clip-rule="evenodd" d="M209.717 1.64155C209.717 0.734948 210.452 4.22762e-06 211.358 4.22762e-06C212.265 4.22762e-06 213 0.734948 213 1.64155C213 2.54816 212.265 3.2831 211.358 3.2831C210.452 3.2831 209.717 2.54816 209.717 1.64155Z" fill="#6C6C6C"/>
<path fill-rule="evenodd" clip-rule="evenodd" d="M0 24.9436C0 24.037 0.734943 23.302 1.64155 23.302C2.54815 23.302 3.2831 24.037 3.2831 24.9436C3.2831 25.8502 2.54815 26.5851 1.64155 26.5851C0.734943 26.5851 0 25.8502 0 24.9436Z" fill="#6C6C6C"/>
<path fill-rule="evenodd" clip-rule="evenodd" d="M23.3006 24.9436C23.3006 24.037 24.0355 23.302 24.9421 23.302C25.8487 23.302 26.5837 24.037 26.5837 24.9436C26.5837 25.8502 25.8487 26.5851 24.9421 26.5851C24.0355 26.5851 23.3006 25.8502 23.3006 24.9436Z" fill="#6C6C6C"/>
<path fill-rule="evenodd" clip-rule="evenodd" d="M46.6051 24.9436C46.6051 24.037 47.34 23.302 48.2466 23.302C49.1532 23.302 49.8882 24.037 49.8882 24.9436C49.8882 25.8502 49.1532 26.5851 48.2466 26.5851C47.34 26.5851 46.6051 25.8502 46.6051 24.9436Z" fill="#6C6C6C"/>
<path fill-rule="evenodd" clip-rule="evenodd" d="M69.9056 24.9436C69.9056 24.037 70.6406 23.302 71.5472 23.302C72.4538 23.302 73.1887 24.037 73.1887 24.9436C73.1887 25.8502 72.4538 26.5851 71.5472 26.5851C70.6406 26.5851 69.9056 25.8502 69.9056 24.9436Z" fill="#6C6C6C"/>
<path fill-rule="evenodd" clip-rule="evenodd" d="M93.2062 24.9436C93.2062 24.037 93.9411 23.302 94.8478 23.302C95.7544 23.302 96.4893 24.037 96.4893 24.9436C96.4893 25.8502 95.7544 26.5851 94.8478 26.5851C93.9411 26.5851 93.2062 25.8502 93.2062 24.9436Z" fill="#6C6C6C"/>
<path fill-rule="evenodd" clip-rule="evenodd" d="M116.511 24.9436C116.511 24.037 117.246 23.302 118.152 23.302C119.059 23.302 119.794 24.037 119.794 24.9436C119.794 25.8502 119.059 26.5851 118.152 26.5851C117.246 26.5851 116.511 25.8502 116.511 24.9436Z" fill="#6C6C6C"/>
<path fill-rule="evenodd" clip-rule="evenodd" d="M139.811 24.9436C139.811 24.037 140.546 23.302 141.453 23.302C142.359 23.302 143.094 24.037 143.094 24.9436C143.094 25.8502 142.359 26.5851 141.453 26.5851C140.546 26.5851 139.811 25.8502 139.811 24.9436Z" fill="#6C6C6C"/>
<path fill-rule="evenodd" clip-rule="evenodd" d="M163.116 24.9436C163.116 24.037 163.851 23.302 164.757 23.302C165.664 23.302 166.399 24.037 166.399 24.9436C166.399 25.8502 165.664 26.5851 164.757 26.5851C163.851 26.5851 163.116 25.8502 163.116 24.9436Z" fill="#6C6C6C"/>
<path fill-rule="evenodd" clip-rule="evenodd" d="M186.416 24.9436C186.416 24.037 187.151 23.302 188.058 23.302C188.964 23.302 189.699 24.037 189.699 24.9436C189.699 25.8502 188.964 26.5851 188.058 26.5851C187.151 26.5851 186.416 25.8502 186.416 24.9436Z" fill="#6C6C6C"/>
<path fill-rule="evenodd" clip-rule="evenodd" d="M209.717 24.9436C209.717 24.037 210.452 23.302 211.358 23.302C212.265 23.302 213 24.037 213 24.9436C213 25.8502 212.265 26.5851 211.358 26.5851C210.452 26.5851 209.717 25.8502 209.717 24.9436Z" fill="#6C6C6C"/>
<path fill-rule="evenodd" clip-rule="evenodd" d="M0 48.2456C0 47.339 0.734943 46.6041 1.64155 46.6041C2.54815 46.6041 3.2831 47.339 3.2831 48.2456C3.2831 49.1522 2.54815 49.8872 1.64155 49.8872C0.734943 49.8872 0 49.1522 0 48.2456Z" fill="#6C6C6C"/>
<path fill-rule="evenodd" clip-rule="evenodd" d="M23.3006 48.2456C23.3006 47.339 24.0355 46.6041 24.9421 46.6041C25.8487 46.6041 26.5837 47.339 26.5837 48.2456C26.5837 49.1522 25.8487 49.8872 24.9421 49.8872C24.0355 49.8872 23.3006 49.1522 23.3006 48.2456Z" fill="#6C6C6C"/>
<path fill-rule="evenodd" clip-rule="evenodd" d="M46.6051 48.2456C46.6051 47.339 47.34 46.6041 48.2466 46.6041C49.1532 46.6041 49.8882 47.339 49.8882 48.2456C49.8882 49.1522 49.1532 49.8872 48.2466 49.8872C47.34 49.8872 46.6051 49.1522 46.6051 48.2456Z" fill="#6C6C6C"/>
<path fill-rule="evenodd" clip-rule="evenodd" d="M69.9056 48.2456C69.9056 47.339 70.6406 46.6041 71.5472 46.6041C72.4538 46.6041 73.1887 47.339 73.1887 48.2456C73.1887 49.1522 72.4538 49.8872 71.5472 49.8872C70.6406 49.8872 69.9056 49.1522 69.9056 48.2456Z" fill="#6C6C6C"/>
<path fill-rule="evenodd" clip-rule="evenodd" d="M93.2062 48.2456C93.2062 47.339 93.9411 46.6041 94.8478 46.6041C95.7544 46.6041 96.4893 47.339 96.4893 48.2456C96.4893 49.1522 95.7544 49.8872 94.8478 49.8872C93.9411 49.8872 93.2062 49.1522 93.2062 48.2456Z" fill="#6C6C6C"/>
<path fill-rule="evenodd" clip-rule="evenodd" d="M116.511 48.2456C116.511 47.339 117.246 46.6041 118.152 46.6041C119.059 46.6041 119.794 47.339 119.794 48.2456C119.794 49.1522 119.059 49.8872 118.152 49.8872C117.246 49.8872 116.511 49.1522 116.511 48.2456Z" fill="#6C6C6C"/>
<path fill-rule="evenodd" clip-rule="evenodd" d="M139.811 48.2456C139.811 47.339 140.546 46.6041 141.453 46.6041C142.359 46.6041 143.094 47.339 143.094 48.2456C143.094 49.1522 142.359 49.8872 141.453 49.8872C140.546 49.8872 139.811 49.1522 139.811 48.2456Z" fill="#6C6C6C"/>
<path fill-rule="evenodd" clip-rule="evenodd" d="M163.116 48.2456C163.116 47.339 163.851 46.6041 164.757 46.6041C165.664 46.6041 166.399 47.339 166.399 48.2456C166.399 49.1522 165.664 49.8872 164.757 49.8872C163.851 49.8872 163.116 49.1522 163.116 48.2456Z" fill="#6C6C6C"/>
<path fill-rule="evenodd" clip-rule="evenodd" d="M186.416 48.2456C186.416 47.339 187.151 46.6041 188.058 46.6041C188.964 46.6041 189.699 47.339 189.699 48.2456C189.699 49.1522 188.964 49.8872 188.058 49.8872C187.151 49.8872 186.416 49.1522 186.416 48.2456Z" fill="#6C6C6C"/>
<path fill-rule="evenodd" clip-rule="evenodd" d="M209.717 48.2456C209.717 47.339 210.452 46.6041 211.358 46.6041C212.265 46.6041 213 47.339 213 48.2456C213 49.1522 212.265 49.8872 211.358 49.8872C210.452 49.8872 209.717 49.1522 209.717 48.2456Z" fill="#6C6C6C"/>
<path fill-rule="evenodd" clip-rule="evenodd" d="M0 71.5474C0 70.6408 0.734943 69.9059 1.64155 69.9059C2.54815 69.9059 3.2831 70.6408 3.2831 71.5474C3.2831 72.454 2.54815 73.189 1.64155 73.189C0.734943 73.189 0 72.454 0 71.5474Z" fill="#6C6C6C"/>
<path fill-rule="evenodd" clip-rule="evenodd" d="M23.3006 71.5474C23.3006 70.6408 24.0355 69.9059 24.9421 69.9059C25.8487 69.9059 26.5837 70.6408 26.5837 71.5474C26.5837 72.454 25.8487 73.189 24.9421 73.189C24.0355 73.189 23.3006 72.454 23.3006 71.5474Z" fill="#6C6C6C"/>
<path fill-rule="evenodd" clip-rule="evenodd" d="M46.6051 71.5474C46.6051 70.6408 47.34 69.9059 48.2466 69.9059C49.1532 69.9059 49.8882 70.6408 49.8882 71.5474C49.8882 72.454 49.1532 73.189 48.2466 73.189C47.34 73.189 46.6051 72.454 46.6051 71.5474Z" fill="#6C6C6C"/>
<path fill-rule="evenodd" clip-rule="evenodd" d="M69.9056 71.5474C69.9056 70.6408 70.6406 69.9059 71.5472 69.9059C72.4538 69.9059 73.1887 70.6408 73.1887 71.5474C73.1887 72.454 72.4538 73.189 71.5472 73.189C70.6406 73.189 69.9056 72.454 69.9056 71.5474Z" fill="#6C6C6C"/>
<path fill-rule="evenodd" clip-rule="evenodd" d="M93.2062 71.5474C93.2062 70.6408 93.9411 69.9059 94.8478 69.9059C95.7544 69.9059 96.4893 70.6408 96.4893 71.5474C96.4893 72.454 95.7544 73.189 94.8478 73.189C93.9411 73.189 93.2062 72.454 93.2062 71.5474Z" fill="#6C6C6C"/>
<path fill-rule="evenodd" clip-rule="evenodd" d="M116.511 71.5474C116.511 70.6408 117.246 69.9059 118.152 69.9059C119.059 69.9059 119.794 70.6408 119.794 71.5474C119.794 72.454 119.059 73.189 118.152 73.189C117.246 73.189 116.511 72.454 116.511 71.5474Z" fill="#6C6C6C"/>
<path fill-rule="evenodd" clip-rule="evenodd" d="M139.811 71.5474C139.811 70.6408 140.546 69.9059 141.453 69.9059C142.359 69.9059 143.094 70.6408 143.094 71.5474C143.094 72.454 142.359 73.189 141.453 73.189C140.546 73.189 139.811 72.454 139.811 71.5474Z" fill="#6C6C6C"/>
<path fill-rule="evenodd" clip-rule="evenodd" d="M163.116 71.5474C163.116 70.6408 163.851 69.9059 164.757 69.9059C165.664 69.9059 166.399 70.6408 166.399 71.5474C166.399 72.454 165.664 73.189 164.757 73.189C163.851 73.189 163.116 72.454 163.116 71.5474Z" fill="#6C6C6C"/>
<path fill-rule="evenodd" clip-rule="evenodd" d="M186.416 71.5474C186.416 70.6408 187.151 69.9059 188.058 69.9059C188.964 69.9059 189.699 70.6408 189.699 71.5474C189.699 72.454 188.964 73.189 188.058 73.189C187.151 73.189 186.416 72.454 186.416 71.5474Z" fill="#6C6C6C"/>
<path fill-rule="evenodd" clip-rule="evenodd" d="M209.717 71.5474C209.717 70.6408 210.452 69.9059 211.358 69.9059C212.265 69.9059 213 70.6408 213 71.5474C213 72.454 212.265 73.189 211.358 73.189C210.452 73.189 209.717 72.454 209.717 71.5474Z" fill="#6C6C6C"/>
<path fill-rule="evenodd" clip-rule="evenodd" d="M0 94.8495C0 93.9429 0.734943 93.2079 1.64155 93.2079C2.54815 93.2079 3.2831 93.9429 3.2831 94.8495C3.2831 95.7561 2.54815 96.491 1.64155 96.491C0.734943 96.491 0 95.7561 0 94.8495Z" fill="#6C6C6C"/>
<path fill-rule="evenodd" clip-rule="evenodd" d="M23.3006 94.8495C23.3006 93.9429 24.0355 93.2079 24.9421 93.2079C25.8487 93.2079 26.5837 93.9429 26.5837 94.8495C26.5837 95.7561 25.8487 96.491 24.9421 96.491C24.0355 96.491 23.3006 95.7561 23.3006 94.8495Z" fill="#6C6C6C"/>
<path fill-rule="evenodd" clip-rule="evenodd" d="M46.6051 94.8495C46.6051 93.9429 47.34 93.2079 48.2466 93.2079C49.1532 93.2079 49.8882 93.9429 49.8882 94.8495C49.8882 95.7561 49.1532 96.491 48.2466 96.491C47.34 96.491 46.6051 95.7561 46.6051 94.8495Z" fill="#6C6C6C"/>
<path fill-rule="evenodd" clip-rule="evenodd" d="M69.9056 94.8495C69.9056 93.9429 70.6406 93.2079 71.5472 93.2079C72.4538 93.2079 73.1887 93.9429 73.1887 94.8495C73.1887 95.7561 72.4538 96.491 71.5472 96.491C70.6406 96.491 69.9056 95.7561 69.9056 94.8495Z" fill="#6C6C6C"/>
<path fill-rule="evenodd" clip-rule="evenodd" d="M93.2062 94.8495C93.2062 93.9429 93.9411 93.2079 94.8478 93.2079C95.7544 93.2079 96.4893 93.9429 96.4893 94.8495C96.4893 95.7561 95.7544 96.491 94.8478 96.491C93.9411 96.491 93.2062 95.7561 93.2062 94.8495Z" fill="#6C6C6C"/>
<path fill-rule="evenodd" clip-rule="evenodd" d="M116.511 94.8495C116.511 93.9429 117.246 93.2079 118.152 93.2079C119.059 93.2079 119.794 93.9429 119.794 94.8495C119.794 95.7561 119.059 96.491 118.152 96.491C117.246 96.491 116.511 95.7561 116.511 94.8495Z" fill="#6C6C6C"/>
<path fill-rule="evenodd" clip-rule="evenodd" d="M139.811 94.8495C139.811 93.9429 140.546 93.2079 141.453 93.2079C142.359 93.2079 143.094 93.9429 143.094 94.8495C143.094 95.7561 142.359 96.491 141.453 96.491C140.546 96.491 139.811 95.7561 139.811 94.8495Z" fill="#6C6C6C"/>
<path fill-rule="evenodd" clip-rule="evenodd" d="M163.116 94.8495C163.116 93.9429 163.851 93.2079 164.757 93.2079C165.664 93.2079 166.399 93.9429 166.399 94.8495C166.399 95.7561 165.664 96.491 164.757 96.491C163.851 96.491 163.116 95.7561 163.116 94.8495Z" fill="#6C6C6C"/>
<path fill-rule="evenodd" clip-rule="evenodd" d="M186.416 94.8495C186.416 93.9429 187.151 93.2079 188.058 93.2079C188.964 93.2079 189.699 93.9429 189.699 94.8495C189.699 95.7561 188.964 96.491 188.058 96.491C187.151 96.491 186.416 95.7561 186.416 94.8495Z" fill="#6C6C6C"/>
<path fill-rule="evenodd" clip-rule="evenodd" d="M209.717 94.8495C209.717 93.9429 210.452 93.2079 211.358 93.2079C212.265 93.2079 213 93.9429 213 94.8495C213 95.7561 212.265 96.491 211.358 96.491C210.452 96.491 209.717 95.7561 209.717 94.8495Z" fill="#6C6C6C"/>
</svg>
