<svg width="1571" height="812" viewBox="0 0 1571 812" fill="none" xmlns="http://www.w3.org/2000/svg">
<path fill-rule="evenodd" clip-rule="evenodd" d="M1532.69 378.727C1526.97 380.805 1520.66 377.861 1518.58 372.15L1507.33 341.235C1505.25 335.524 1508.19 329.209 1513.91 327.131L1544.82 315.879C1550.53 313.8 1556.85 316.744 1558.92 322.455L1570.18 353.37C1572.26 359.081 1569.31 365.396 1563.6 367.474L1532.69 378.727Z" fill="#474856"/>
<path fill-rule="evenodd" clip-rule="evenodd" d="M54.3988 619.246C24.3551 605.237 11.357 569.524 25.3666 539.481L203.517 157.436C217.526 127.392 253.239 114.394 283.282 128.404L684.554 315.52C714.597 329.529 727.596 365.241 713.586 395.285L535.436 777.33C521.426 807.373 485.714 820.372 455.67 806.362L54.3988 619.246Z" fill="#36374C"/>
<path fill-rule="evenodd" clip-rule="evenodd" d="M414.875 361.196C414.875 360.61 415.35 360.136 415.936 360.136C416.521 360.136 416.996 360.61 416.996 361.196C416.996 361.782 416.521 362.256 415.936 362.256C415.35 362.256 414.875 361.782 414.875 361.196Z" fill="#BEBEBE"/>
<path fill-rule="evenodd" clip-rule="evenodd" d="M429.926 361.196C429.926 360.61 430.401 360.136 430.986 360.136C431.572 360.136 432.046 360.61 432.046 361.196C432.046 361.782 431.572 362.256 430.986 362.256C430.401 362.256 429.926 361.782 429.926 361.196Z" fill="#BEBEBE"/>
<path fill-rule="evenodd" clip-rule="evenodd" d="M444.979 361.196C444.979 360.61 445.454 360.136 446.039 360.136C446.625 360.136 447.099 360.61 447.099 361.196C447.099 361.782 446.625 362.256 446.039 362.256C445.454 362.256 444.979 361.782 444.979 361.196Z" fill="#BEBEBE"/>
<path fill-rule="evenodd" clip-rule="evenodd" d="M460.029 361.196C460.029 360.61 460.504 360.136 461.09 360.136C461.675 360.136 462.15 360.61 462.15 361.196C462.15 361.782 461.675 362.256 461.09 362.256C460.504 362.256 460.029 361.782 460.029 361.196Z" fill="#BEBEBE"/>
<path fill-rule="evenodd" clip-rule="evenodd" d="M475.08 361.196C475.08 360.61 475.554 360.136 476.14 360.136C476.726 360.136 477.2 360.61 477.2 361.196C477.2 361.782 476.726 362.256 476.14 362.256C475.554 362.256 475.08 361.782 475.08 361.196Z" fill="#BEBEBE"/>
<path fill-rule="evenodd" clip-rule="evenodd" d="M490.133 361.196C490.133 360.61 490.607 360.136 491.193 360.136C491.779 360.136 492.253 360.61 492.253 361.196C492.253 361.782 491.779 362.256 491.193 362.256C490.607 362.256 490.133 361.782 490.133 361.196Z" fill="#BEBEBE"/>
<path fill-rule="evenodd" clip-rule="evenodd" d="M505.183 361.196C505.183 360.61 505.658 360.136 506.243 360.136C506.829 360.136 507.304 360.61 507.304 361.196C507.304 361.782 506.829 362.256 506.243 362.256C505.658 362.256 505.183 361.782 505.183 361.196Z" fill="#BEBEBE"/>
<path fill-rule="evenodd" clip-rule="evenodd" d="M520.236 361.196C520.236 360.61 520.711 360.136 521.296 360.136C521.882 360.136 522.357 360.61 522.357 361.196C522.357 361.782 521.882 362.256 521.296 362.256C520.711 362.256 520.236 361.782 520.236 361.196Z" fill="#BEBEBE"/>
<path fill-rule="evenodd" clip-rule="evenodd" d="M535.286 361.196C535.286 360.61 535.761 360.136 536.347 360.136C536.932 360.136 537.407 360.61 537.407 361.196C537.407 361.782 536.932 362.256 536.347 362.256C535.761 362.256 535.286 361.782 535.286 361.196Z" fill="#BEBEBE"/>
<path fill-rule="evenodd" clip-rule="evenodd" d="M550.337 361.196C550.337 360.61 550.812 360.136 551.397 360.136C551.983 360.136 552.457 360.61 552.457 361.196C552.457 361.782 551.983 362.256 551.397 362.256C550.812 362.256 550.337 361.782 550.337 361.196Z" fill="#BEBEBE"/>
<path fill-rule="evenodd" clip-rule="evenodd" d="M414.875 376.247C414.875 375.662 415.35 375.187 415.936 375.187C416.521 375.187 416.996 375.662 416.996 376.247C416.996 376.833 416.521 377.308 415.936 377.308C415.35 377.308 414.875 376.833 414.875 376.247Z" fill="#BEBEBE"/>
<path fill-rule="evenodd" clip-rule="evenodd" d="M429.926 376.247C429.926 375.662 430.401 375.187 430.986 375.187C431.572 375.187 432.046 375.662 432.046 376.247C432.046 376.833 431.572 377.308 430.986 377.308C430.401 377.308 429.926 376.833 429.926 376.247Z" fill="#BEBEBE"/>
<path fill-rule="evenodd" clip-rule="evenodd" d="M444.979 376.247C444.979 375.662 445.454 375.187 446.039 375.187C446.625 375.187 447.099 375.662 447.099 376.247C447.099 376.833 446.625 377.308 446.039 377.308C445.454 377.308 444.979 376.833 444.979 376.247Z" fill="#BEBEBE"/>
<path fill-rule="evenodd" clip-rule="evenodd" d="M460.029 376.247C460.029 375.662 460.504 375.187 461.09 375.187C461.675 375.187 462.15 375.662 462.15 376.247C462.15 376.833 461.675 377.308 461.09 377.308C460.504 377.308 460.029 376.833 460.029 376.247Z" fill="#BEBEBE"/>
<path fill-rule="evenodd" clip-rule="evenodd" d="M475.08 376.247C475.08 375.662 475.554 375.187 476.14 375.187C476.726 375.187 477.2 375.662 477.2 376.247C477.2 376.833 476.726 377.308 476.14 377.308C475.554 377.308 475.08 376.833 475.08 376.247Z" fill="#BEBEBE"/>
<path fill-rule="evenodd" clip-rule="evenodd" d="M490.133 376.247C490.133 375.662 490.607 375.187 491.193 375.187C491.779 375.187 492.253 375.662 492.253 376.247C492.253 376.833 491.779 377.308 491.193 377.308C490.607 377.308 490.133 376.833 490.133 376.247Z" fill="#BEBEBE"/>
<path fill-rule="evenodd" clip-rule="evenodd" d="M505.183 376.247C505.183 375.662 505.658 375.187 506.243 375.187C506.829 375.187 507.304 375.662 507.304 376.247C507.304 376.833 506.829 377.308 506.243 377.308C505.658 377.308 505.183 376.833 505.183 376.247Z" fill="#BEBEBE"/>
<path fill-rule="evenodd" clip-rule="evenodd" d="M520.236 376.247C520.236 375.662 520.711 375.187 521.296 375.187C521.882 375.187 522.357 375.662 522.357 376.247C522.357 376.833 521.882 377.308 521.296 377.308C520.711 377.308 520.236 376.833 520.236 376.247Z" fill="#BEBEBE"/>
<path fill-rule="evenodd" clip-rule="evenodd" d="M535.286 376.247C535.286 375.662 535.761 375.187 536.347 375.187C536.932 375.187 537.407 375.662 537.407 376.247C537.407 376.833 536.932 377.308 536.347 377.308C535.761 377.308 535.286 376.833 535.286 376.247Z" fill="#BEBEBE"/>
<path fill-rule="evenodd" clip-rule="evenodd" d="M550.337 376.247C550.337 375.662 550.812 375.187 551.397 375.187C551.983 375.187 552.457 375.662 552.457 376.247C552.457 376.833 551.983 377.308 551.397 377.308C550.812 377.308 550.337 376.833 550.337 376.247Z" fill="#BEBEBE"/>
<path fill-rule="evenodd" clip-rule="evenodd" d="M414.875 391.299C414.875 390.713 415.35 390.238 415.936 390.238C416.521 390.238 416.996 390.713 416.996 391.299C416.996 391.884 416.521 392.359 415.936 392.359C415.35 392.359 414.875 391.884 414.875 391.299Z" fill="#BEBEBE"/>
<path fill-rule="evenodd" clip-rule="evenodd" d="M429.926 391.299C429.926 390.713 430.401 390.238 430.986 390.238C431.572 390.238 432.046 390.713 432.046 391.299C432.046 391.884 431.572 392.359 430.986 392.359C430.401 392.359 429.926 391.884 429.926 391.299Z" fill="#BEBEBE"/>
<path fill-rule="evenodd" clip-rule="evenodd" d="M444.979 391.299C444.979 390.713 445.454 390.238 446.039 390.238C446.625 390.238 447.099 390.713 447.099 391.299C447.099 391.884 446.625 392.359 446.039 392.359C445.454 392.359 444.979 391.884 444.979 391.299Z" fill="#BEBEBE"/>
<path fill-rule="evenodd" clip-rule="evenodd" d="M460.029 391.299C460.029 390.713 460.504 390.238 461.09 390.238C461.675 390.238 462.15 390.713 462.15 391.299C462.15 391.884 461.675 392.359 461.09 392.359C460.504 392.359 460.029 391.884 460.029 391.299Z" fill="#BEBEBE"/>
<path fill-rule="evenodd" clip-rule="evenodd" d="M475.08 391.299C475.08 390.713 475.554 390.238 476.14 390.238C476.726 390.238 477.2 390.713 477.2 391.299C477.2 391.884 476.726 392.359 476.14 392.359C475.554 392.359 475.08 391.884 475.08 391.299Z" fill="#BEBEBE"/>
<path fill-rule="evenodd" clip-rule="evenodd" d="M490.133 391.299C490.133 390.713 490.607 390.238 491.193 390.238C491.779 390.238 492.253 390.713 492.253 391.299C492.253 391.884 491.779 392.359 491.193 392.359C490.607 392.359 490.133 391.884 490.133 391.299Z" fill="#BEBEBE"/>
<path fill-rule="evenodd" clip-rule="evenodd" d="M505.183 391.299C505.183 390.713 505.658 390.238 506.243 390.238C506.829 390.238 507.304 390.713 507.304 391.299C507.304 391.884 506.829 392.359 506.243 392.359C505.658 392.359 505.183 391.884 505.183 391.299Z" fill="#BEBEBE"/>
<path fill-rule="evenodd" clip-rule="evenodd" d="M520.236 391.299C520.236 390.713 520.711 390.238 521.296 390.238C521.882 390.238 522.357 390.713 522.357 391.299C522.357 391.884 521.882 392.359 521.296 392.359C520.711 392.359 520.236 391.884 520.236 391.299Z" fill="#BEBEBE"/>
<path fill-rule="evenodd" clip-rule="evenodd" d="M535.286 391.299C535.286 390.713 535.761 390.238 536.347 390.238C536.932 390.238 537.407 390.713 537.407 391.299C537.407 391.884 536.932 392.359 536.347 392.359C535.761 392.359 535.286 391.884 535.286 391.299Z" fill="#BEBEBE"/>
<path fill-rule="evenodd" clip-rule="evenodd" d="M550.337 391.299C550.337 390.713 550.812 390.238 551.397 390.238C551.983 390.238 552.457 390.713 552.457 391.299C552.457 391.884 551.983 392.359 551.397 392.359C550.812 392.359 550.337 391.884 550.337 391.299Z" fill="#BEBEBE"/>
<path fill-rule="evenodd" clip-rule="evenodd" d="M414.875 406.35C414.875 405.764 415.35 405.29 415.936 405.29C416.521 405.29 416.996 405.764 416.996 406.35C416.996 406.936 416.521 407.41 415.936 407.41C415.35 407.41 414.875 406.936 414.875 406.35Z" fill="#BEBEBE"/>
<path fill-rule="evenodd" clip-rule="evenodd" d="M429.926 406.35C429.926 405.764 430.401 405.29 430.986 405.29C431.572 405.29 432.046 405.764 432.046 406.35C432.046 406.936 431.572 407.41 430.986 407.41C430.401 407.41 429.926 406.936 429.926 406.35Z" fill="#BEBEBE"/>
<path fill-rule="evenodd" clip-rule="evenodd" d="M444.979 406.35C444.979 405.764 445.454 405.29 446.039 405.29C446.625 405.29 447.099 405.764 447.099 406.35C447.099 406.936 446.625 407.41 446.039 407.41C445.454 407.41 444.979 406.936 444.979 406.35Z" fill="#BEBEBE"/>
<path fill-rule="evenodd" clip-rule="evenodd" d="M460.029 406.35C460.029 405.764 460.504 405.29 461.09 405.29C461.675 405.29 462.15 405.764 462.15 406.35C462.15 406.936 461.675 407.41 461.09 407.41C460.504 407.41 460.029 406.936 460.029 406.35Z" fill="#BEBEBE"/>
<path fill-rule="evenodd" clip-rule="evenodd" d="M475.08 406.35C475.08 405.764 475.554 405.29 476.14 405.29C476.726 405.29 477.2 405.764 477.2 406.35C477.2 406.936 476.726 407.41 476.14 407.41C475.554 407.41 475.08 406.936 475.08 406.35Z" fill="#BEBEBE"/>
<path fill-rule="evenodd" clip-rule="evenodd" d="M490.133 406.35C490.133 405.764 490.607 405.29 491.193 405.29C491.779 405.29 492.253 405.764 492.253 406.35C492.253 406.936 491.779 407.41 491.193 407.41C490.607 407.41 490.133 406.936 490.133 406.35Z" fill="#BEBEBE"/>
<path fill-rule="evenodd" clip-rule="evenodd" d="M505.183 406.35C505.183 405.764 505.658 405.29 506.243 405.29C506.829 405.29 507.304 405.764 507.304 406.35C507.304 406.936 506.829 407.41 506.243 407.41C505.658 407.41 505.183 406.936 505.183 406.35Z" fill="#BEBEBE"/>
<path fill-rule="evenodd" clip-rule="evenodd" d="M520.236 406.35C520.236 405.764 520.711 405.29 521.296 405.29C521.882 405.29 522.357 405.764 522.357 406.35C522.357 406.936 521.882 407.41 521.296 407.41C520.711 407.41 520.236 406.936 520.236 406.35Z" fill="#BEBEBE"/>
<path fill-rule="evenodd" clip-rule="evenodd" d="M535.286 406.35C535.286 405.764 535.761 405.29 536.347 405.29C536.932 405.29 537.407 405.764 537.407 406.35C537.407 406.936 536.932 407.41 536.347 407.41C535.761 407.41 535.286 406.936 535.286 406.35Z" fill="#BEBEBE"/>
<path fill-rule="evenodd" clip-rule="evenodd" d="M550.337 406.35C550.337 405.764 550.812 405.29 551.397 405.29C551.983 405.29 552.457 405.764 552.457 406.35C552.457 406.936 551.983 407.41 551.397 407.41C550.812 407.41 550.337 406.936 550.337 406.35Z" fill="#BEBEBE"/>
<path fill-rule="evenodd" clip-rule="evenodd" d="M414.875 421.401C414.875 420.816 415.35 420.341 415.936 420.341C416.521 420.341 416.996 420.816 416.996 421.401C416.996 421.987 416.521 422.462 415.936 422.462C415.35 422.462 414.875 421.987 414.875 421.401Z" fill="#BEBEBE"/>
<path fill-rule="evenodd" clip-rule="evenodd" d="M429.926 421.401C429.926 420.816 430.401 420.341 430.986 420.341C431.572 420.341 432.046 420.816 432.046 421.401C432.046 421.987 431.572 422.462 430.986 422.462C430.401 422.462 429.926 421.987 429.926 421.401Z" fill="#BEBEBE"/>
<path fill-rule="evenodd" clip-rule="evenodd" d="M444.979 421.401C444.979 420.816 445.454 420.341 446.039 420.341C446.625 420.341 447.099 420.816 447.099 421.401C447.099 421.987 446.625 422.462 446.039 422.462C445.454 422.462 444.979 421.987 444.979 421.401Z" fill="#BEBEBE"/>
<path fill-rule="evenodd" clip-rule="evenodd" d="M460.029 421.401C460.029 420.816 460.504 420.341 461.09 420.341C461.675 420.341 462.15 420.816 462.15 421.401C462.15 421.987 461.675 422.462 461.09 422.462C460.504 422.462 460.029 421.987 460.029 421.401Z" fill="#BEBEBE"/>
<path fill-rule="evenodd" clip-rule="evenodd" d="M475.08 421.401C475.08 420.816 475.554 420.341 476.14 420.341C476.726 420.341 477.2 420.816 477.2 421.401C477.2 421.987 476.726 422.462 476.14 422.462C475.554 422.462 475.08 421.987 475.08 421.401Z" fill="#BEBEBE"/>
<path fill-rule="evenodd" clip-rule="evenodd" d="M490.133 421.401C490.133 420.816 490.607 420.341 491.193 420.341C491.779 420.341 492.253 420.816 492.253 421.401C492.253 421.987 491.779 422.462 491.193 422.462C490.607 422.462 490.133 421.987 490.133 421.401Z" fill="#BEBEBE"/>
<path fill-rule="evenodd" clip-rule="evenodd" d="M505.183 421.401C505.183 420.816 505.658 420.341 506.243 420.341C506.829 420.341 507.304 420.816 507.304 421.401C507.304 421.987 506.829 422.462 506.243 422.462C505.658 422.462 505.183 421.987 505.183 421.401Z" fill="#BEBEBE"/>
<path fill-rule="evenodd" clip-rule="evenodd" d="M520.236 421.401C520.236 420.816 520.711 420.341 521.296 420.341C521.882 420.341 522.357 420.816 522.357 421.401C522.357 421.987 521.882 422.462 521.296 422.462C520.711 422.462 520.236 421.987 520.236 421.401Z" fill="#BEBEBE"/>
<path fill-rule="evenodd" clip-rule="evenodd" d="M535.286 421.401C535.286 420.816 535.761 420.341 536.347 420.341C536.932 420.341 537.407 420.816 537.407 421.401C537.407 421.987 536.932 422.462 536.347 422.462C535.761 422.462 535.286 421.987 535.286 421.401Z" fill="#BEBEBE"/>
<path fill-rule="evenodd" clip-rule="evenodd" d="M550.337 421.401C550.337 420.816 550.812 420.341 551.397 420.341C551.983 420.341 552.457 420.816 552.457 421.401C552.457 421.987 551.983 422.462 551.397 422.462C550.812 422.462 550.337 421.987 550.337 421.401Z" fill="#BEBEBE"/>
<path fill-rule="evenodd" clip-rule="evenodd" d="M721.768 149.86C716.057 151.939 709.743 148.994 707.664 143.283L703.028 130.544C700.949 124.833 703.894 118.519 709.604 116.44L722.343 111.803C728.054 109.725 734.369 112.669 736.448 118.38L741.084 131.119C743.163 136.83 740.218 143.145 734.507 145.224L721.768 149.86Z" fill="#444450"/>
<path fill-rule="evenodd" clip-rule="evenodd" d="M604.756 207.014C599.492 203.975 597.689 197.245 600.728 191.982L617.121 163.588C620.16 158.324 626.89 156.521 632.153 159.56L660.548 175.953C665.811 178.992 667.614 185.722 664.576 190.985L648.182 219.38C645.143 224.643 638.413 226.446 633.15 223.408L604.756 207.014Z" fill="#49495A"/>
</svg>
