<svg width="24" height="24" viewBox="0 0 24 24" fill="none" xmlns="http://www.w3.org/2000/svg">
<path d="M12 2.40002C8.48005 2.40002 4.80005 5.12002 4.80005 9.60002C4.80005 13.84 11.2 20.32 11.44 20.56C11.6 20.72 11.76 20.8 12 20.8C12.24 20.8 12.4 20.72 12.56 20.56C12.8 20.32 19.2 13.84 19.2 9.60002C19.2 5.12002 15.52 2.40002 12 2.40002ZM12 12C10.64 12 9.60005 10.96 9.60005 9.60002C9.60005 8.24002 10.64 7.20002 12 7.20002C13.36 7.20002 14.4 8.24002 14.4 9.60002C14.4 10.96 13.36 12 12 12Z" fill="white" fill-opacity="0.5"/>
</svg>
